<svg xmlns="http://www.w3.org/2000/svg" xmlns:xlink="http://www.w3.org/1999/xlink" width="500" zoomAndPan="magnify" viewBox="0 0 375 374.999991" height="500" preserveAspectRatio="xMidYMid meet" version="1.0"><defs><g/><clipPath id="7f8371d093"><path d="M 133 46 L 321 46 L 321 166.503906 L 133 166.503906 Z M 133 46 " clip-rule="nonzero"/></clipPath><clipPath id="ff3f7f7385"><path d="M 60 46 L 248 46 L 248 166.503906 L 60 166.503906 Z M 60 46 " clip-rule="nonzero"/></clipPath></defs><g clip-path="url(#7f8371d093)"><path fill="#233dff" d="M 261.285156 46.09375 C 243.53125 45.765625 227.503906 53.148438 216.3125 65.117188 C 211.304688 70.46875 212.871094 79.152344 219.359375 82.554688 C 223.796875 84.882812 229.300781 84.074219 232.726562 80.421875 C 239.582031 73.105469 249.328125 68.535156 260.144531 68.535156 C 281.191406 68.535156 298.195312 85.832031 297.726562 106.984375 C 297.414062 121.105469 289.027344 133.917969 276.3125 140.074219 C 257.183594 149.332031 238.046875 137.164062 221.328125 128.28125 C 197.359375 115.546875 173.390625 102.8125 149.421875 90.078125 C 144.046875 87.222656 137.375 89.285156 134.546875 94.675781 C 131.753906 99.996094 133.753906 106.574219 139.039062 109.433594 C 146.328125 113.382812 155.226562 118.578125 156.742188 119.375 C 166.503906 124.492188 176.269531 129.613281 186.03125 134.734375 C 198.066406 141.046875 210.003906 147.546875 222.164062 153.613281 C 234.457031 159.742188 246.105469 166.179688 260.144531 166.179688 C 293.796875 166.179688 320.980469 138.492188 320.167969 104.65625 C 319.402344 72.6875 293.25 46.683594 261.285156 46.09375 " fill-opacity="1" fill-rule="nonzero"/></g><g clip-path="url(#ff3f7f7385)"><path fill="#f4f6fc" d="M 119.160156 166.167969 C 136.914062 166.496094 152.941406 159.113281 164.132812 147.144531 C 169.140625 141.792969 167.574219 133.109375 161.082031 129.707031 L 160.730469 129.519531 C 156.371094 127.234375 151.082031 128.25 147.714844 131.839844 C 140.859375 139.15625 131.113281 143.726562 120.296875 143.726562 C 99.253906 143.726562 82.25 126.429688 82.71875 105.277344 C 83.03125 91.152344 91.417969 78.339844 104.132812 72.1875 C 123.257812 62.929688 142.398438 75.097656 159.117188 83.980469 C 183.085938 96.714844 207.050781 109.449219 231.019531 122.179688 C 236.394531 125.035156 243.066406 122.976562 245.898438 117.585938 C 248.6875 112.265625 246.6875 105.6875 241.40625 102.824219 C 234.117188 98.875 225.21875 93.683594 223.703125 92.886719 C 213.9375 87.765625 204.175781 82.648438 194.414062 77.527344 C 182.378906 71.214844 170.441406 64.710938 158.28125 58.648438 C 145.988281 52.519531 134.339844 46.082031 120.296875 46.082031 C 86.648438 46.082031 59.464844 73.765625 60.277344 107.605469 C 61.042969 139.570312 87.195312 165.574219 119.160156 166.167969 " fill-opacity="1" fill-rule="nonzero"/></g><g fill="#233dff" fill-opacity="1"><g transform="translate(60.99744, 234.597761)"><g><path d="M 50.0625 -40.546875 L 57.171875 -40.546875 L 45.15625 0 L 37.625 0 L 29.109375 -30.6875 L 20.0625 0 L 12.609375 0.0625 L 1.109375 -40.546875 L 8.171875 -40.546875 L 16.5625 -7.53125 L 25.671875 -40.546875 L 33.140625 -40.546875 L 41.59375 -7.703125 Z M 50.0625 -40.546875 "/></g></g></g><g fill="#233dff" fill-opacity="1"><g transform="translate(118.100798, 234.597761)"><g><path d="M 17.90625 0.53125 C 13.238281 0.53125 9.445312 -0.984375 6.53125 -4.015625 C 3.613281 -7.054688 2.15625 -11.082031 2.15625 -16.09375 C 2.15625 -21.113281 3.632812 -25.128906 6.59375 -28.140625 C 9.550781 -31.160156 13.375 -32.671875 18.0625 -32.671875 C 22.75 -32.671875 26.550781 -31.222656 29.46875 -28.328125 C 32.382812 -25.429688 33.84375 -21.648438 33.84375 -16.984375 C 33.84375 -15.847656 33.765625 -14.796875 33.609375 -13.828125 L 8.984375 -13.828125 C 9.140625 -11.140625 10.039062 -9.007812 11.6875 -7.4375 C 13.34375 -5.863281 15.414062 -5.078125 17.90625 -5.078125 C 21.53125 -5.078125 24.078125 -6.570312 25.546875 -9.5625 L 32.734375 -9.5625 C 31.753906 -6.613281 29.984375 -4.191406 27.421875 -2.296875 C 24.859375 -0.410156 21.6875 0.53125 17.90625 0.53125 Z M 26.890625 -18.375 C 26.859375 -21.019531 25.984375 -23.128906 24.265625 -24.703125 C 22.554688 -26.285156 20.476562 -27.078125 18.03125 -27.078125 C 15.582031 -27.078125 13.53125 -26.285156 11.875 -24.703125 C 10.21875 -23.128906 9.273438 -21.019531 9.046875 -18.375 Z M 26.890625 -18.375 "/></g></g></g><g fill="#ffffff" fill-opacity="1"><g transform="translate(152.913794, 234.597761)"><g><path d="M 16.96875 -35.640625 C 14.988281 -35.640625 13.375 -35.132812 12.125 -34.125 C 10.882812 -33.113281 10.265625 -31.644531 10.265625 -29.71875 C 10.265625 -27.800781 11.003906 -26.332031 12.484375 -25.3125 C 13.960938 -24.300781 15.75 -23.5625 17.84375 -23.09375 C 19.945312 -22.632812 22.050781 -22.101562 24.15625 -21.5 C 26.257812 -20.894531 28.046875 -19.773438 29.515625 -18.140625 C 30.992188 -16.503906 31.734375 -14.1875 31.734375 -11.1875 C 31.734375 -8.195312 30.46875 -5.515625 27.9375 -3.140625 C 25.414062 -0.773438 22.035156 0.40625 17.796875 0.40625 C 13.554688 0.40625 10.113281 -0.582031 7.46875 -2.5625 C 4.820312 -4.550781 3.5 -7.296875 3.5 -10.796875 L 10.625 -10.796875 C 10.78125 -9.003906 11.441406 -7.582031 12.609375 -6.53125 C 13.773438 -5.476562 15.484375 -4.953125 17.734375 -4.953125 C 19.992188 -4.953125 21.773438 -5.535156 23.078125 -6.703125 C 24.378906 -7.867188 25.03125 -9.25 25.03125 -10.84375 C 25.03125 -12.445312 24.628906 -13.691406 23.828125 -14.578125 C 23.035156 -15.472656 22.003906 -16.144531 20.734375 -16.59375 C 19.472656 -17.039062 18.082031 -17.4375 16.5625 -17.78125 C 15.050781 -18.132812 13.523438 -18.546875 11.984375 -19.015625 C 10.453125 -19.484375 9.050781 -20.085938 7.78125 -20.828125 C 6.519531 -21.566406 5.488281 -22.644531 4.6875 -24.0625 C 3.894531 -25.488281 3.5 -27.226562 3.5 -29.28125 C 3.5 -32.820312 4.769531 -35.671875 7.3125 -37.828125 C 9.863281 -39.992188 13.171875 -41.078125 17.234375 -41.078125 C 21.304688 -41.078125 24.554688 -40.140625 26.984375 -38.265625 C 29.410156 -36.398438 30.757812 -33.695312 31.03125 -30.15625 L 23.6875 -30.15625 C 23.53125 -31.71875 22.867188 -33.019531 21.703125 -34.0625 C 20.535156 -35.113281 18.957031 -35.640625 16.96875 -35.640625 Z M 16.96875 -35.640625 "/></g></g></g><g fill="#ffffff" fill-opacity="1"><g transform="translate(186.977277, 234.597761)"><g><path d="M 11.03125 -43.171875 L 11.03125 -27.078125 C 13.164062 -30.804688 16.585938 -32.671875 21.296875 -32.671875 C 24.910156 -32.671875 27.894531 -31.460938 30.25 -29.046875 C 32.601562 -26.640625 33.78125 -23.28125 33.78125 -18.96875 L 33.78125 0 L 27.1875 0 L 27.1875 -17.96875 C 27.1875 -20.84375 26.46875 -23.046875 25.03125 -24.578125 C 23.59375 -26.117188 21.628906 -26.890625 19.140625 -26.890625 C 16.648438 -26.890625 14.675781 -26.117188 13.21875 -24.578125 C 11.757812 -23.046875 11.03125 -20.84375 11.03125 -17.96875 L 11.03125 0 L 4.375 0 L 4.375 -43.171875 Z M 11.03125 -43.171875 "/></g></g></g><g fill="#ffffff" fill-opacity="1"><g transform="translate(223.665556, 234.597761)"><g><path d="M 25.578125 -8.1875 C 27.503906 -10.15625 28.46875 -12.789062 28.46875 -16.09375 C 28.46875 -19.40625 27.503906 -22.03125 25.578125 -23.96875 C 23.660156 -25.914062 21.378906 -26.890625 18.734375 -26.890625 C 16.085938 -26.890625 13.800781 -25.9375 11.875 -24.03125 C 9.945312 -22.125 8.984375 -19.519531 8.984375 -16.21875 C 8.984375 -12.914062 9.945312 -10.257812 11.875 -8.25 C 13.800781 -6.25 16.085938 -5.25 18.734375 -5.25 C 21.378906 -5.25 23.660156 -6.226562 25.578125 -8.1875 Z M 17.328125 0.53125 C 13.046875 0.53125 9.445312 -1.035156 6.53125 -4.171875 C 3.613281 -7.304688 2.15625 -11.3125 2.15625 -16.1875 C 2.15625 -21.070312 3.601562 -25.039062 6.5 -28.09375 C 9.40625 -31.144531 13.015625 -32.671875 17.328125 -32.671875 C 19.859375 -32.671875 22.082031 -32.097656 24 -30.953125 C 25.925781 -29.804688 27.414062 -28.296875 28.46875 -26.421875 L 28.46875 -32.140625 L 35.1875 -32.140625 L 35.1875 0 L 28.46875 0 L 28.46875 -6.015625 C 27.382812 -4.023438 25.890625 -2.4375 23.984375 -1.25 C 22.078125 -0.0625 19.859375 0.53125 17.328125 0.53125 Z M 17.328125 0.53125 "/></g></g></g><g fill="#ffffff" fill-opacity="1"><g transform="translate(262.045373, 234.597761)"><g><path d="M 11.03125 -32.140625 L 11.03125 -26.546875 C 13.09375 -30.628906 16.300781 -32.671875 20.65625 -32.671875 L 20.65625 -25.78125 L 18.96875 -25.78125 C 16.351562 -25.78125 14.375 -25.117188 13.03125 -23.796875 C 11.695312 -22.484375 11.03125 -20.191406 11.03125 -16.921875 L 11.03125 0 L 4.375 0 L 4.375 -32.140625 Z M 11.03125 -32.140625 "/></g></g></g><g fill="#ffffff" fill-opacity="1"><g transform="translate(283.276507, 234.597761)"><g><path d="M 17.90625 0.53125 C 13.238281 0.53125 9.445312 -0.984375 6.53125 -4.015625 C 3.613281 -7.054688 2.15625 -11.082031 2.15625 -16.09375 C 2.15625 -21.113281 3.632812 -25.128906 6.59375 -28.140625 C 9.550781 -31.160156 13.375 -32.671875 18.0625 -32.671875 C 22.75 -32.671875 26.550781 -31.222656 29.46875 -28.328125 C 32.382812 -25.429688 33.84375 -21.648438 33.84375 -16.984375 C 33.84375 -15.847656 33.765625 -14.796875 33.609375 -13.828125 L 8.984375 -13.828125 C 9.140625 -11.140625 10.039062 -9.007812 11.6875 -7.4375 C 13.34375 -5.863281 15.414062 -5.078125 17.90625 -5.078125 C 21.53125 -5.078125 24.078125 -6.570312 25.546875 -9.5625 L 32.734375 -9.5625 C 31.753906 -6.613281 29.984375 -4.191406 27.421875 -2.296875 C 24.859375 -0.410156 21.6875 0.53125 17.90625 0.53125 Z M 26.890625 -18.375 C 26.859375 -21.019531 25.984375 -23.128906 24.265625 -24.703125 C 22.554688 -26.285156 20.476562 -27.078125 18.03125 -27.078125 C 15.582031 -27.078125 13.53125 -26.285156 11.875 -24.703125 C 10.21875 -23.128906 9.273438 -21.019531 9.046875 -18.375 Z M 26.890625 -18.375 "/></g></g></g><g fill="#233dff" fill-opacity="1"><g transform="translate(23.521931, 268.185336)"><g><path d="M 1.390625 0 L 1.390625 -11.71875 L 2.984375 -11.71875 L 2.984375 -1.296875 L 8.90625 -1.296875 L 8.90625 0 Z M 1.390625 0 "/></g></g></g><g fill="#233dff" fill-opacity="1"><g transform="translate(35.023842, 268.185336)"><g><path d="M 1.390625 0 L 1.390625 -11.71875 L 10.28125 -11.71875 L 10.28125 -10.421875 L 2.984375 -10.421875 L 2.984375 -6.65625 L 9.78125 -6.65625 L 9.78125 -5.375 L 2.984375 -5.375 L 2.984375 -1.296875 L 10.625 -1.296875 L 10.625 0 Z M 1.390625 0 "/></g></g></g><g fill="#233dff" fill-opacity="1"><g transform="translate(48.410677, 268.185336)"><g><path d="M 5.984375 -10.421875 L 5.984375 0 L 4.40625 0 L 4.40625 -10.421875 L 0.375 -10.421875 L 0.375 -11.71875 L 10.015625 -11.71875 L 10.015625 -10.421875 Z M 5.984375 -10.421875 "/></g></g></g><g fill="#233dff" fill-opacity="1"><g transform="translate(60.842595, 268.185336)"><g><path d="M 2.21875 -8.03125 L 1.046875 -8.03125 L 0.859375 -11.71875 L 2.390625 -11.71875 Z M 2.21875 -8.03125 "/></g></g></g><g fill="#233dff" fill-opacity="1"><g transform="translate(66.133389, 268.185336)"><g><path d="M 10.578125 -3.234375 C 10.578125 -2.148438 10.15625 -1.3125 9.3125 -0.71875 C 8.46875 -0.125 7.273438 0.171875 5.734375 0.171875 C 2.878906 0.171875 1.222656 -0.820312 0.765625 -2.8125 L 2.3125 -3.125 C 2.488281 -2.414062 2.863281 -1.894531 3.4375 -1.5625 C 4.019531 -1.238281 4.804688 -1.078125 5.796875 -1.078125 C 6.816406 -1.078125 7.601562 -1.25 8.15625 -1.59375 C 8.71875 -1.945312 9 -2.46875 9 -3.15625 C 9 -3.53125 8.910156 -3.835938 8.734375 -4.078125 C 8.566406 -4.316406 8.320312 -4.515625 8 -4.671875 C 7.6875 -4.828125 7.3125 -4.957031 6.875 -5.0625 C 6.4375 -5.164062 5.953125 -5.28125 5.421875 -5.40625 C 4.492188 -5.613281 3.789062 -5.816406 3.3125 -6.015625 C 2.832031 -6.222656 2.453125 -6.453125 2.171875 -6.703125 C 1.898438 -6.953125 1.691406 -7.242188 1.546875 -7.578125 C 1.398438 -7.921875 1.328125 -8.3125 1.328125 -8.75 C 1.328125 -9.757812 1.707031 -10.535156 2.46875 -11.078125 C 3.238281 -11.617188 4.335938 -11.890625 5.765625 -11.890625 C 7.097656 -11.890625 8.113281 -11.6875 8.8125 -11.28125 C 9.519531 -10.875 10.015625 -10.179688 10.296875 -9.203125 L 8.734375 -8.921875 C 8.566406 -9.546875 8.238281 -9.992188 7.75 -10.265625 C 7.269531 -10.546875 6.601562 -10.6875 5.75 -10.6875 C 4.8125 -10.6875 4.097656 -10.53125 3.609375 -10.21875 C 3.117188 -9.914062 2.875 -9.457031 2.875 -8.84375 C 2.875 -8.476562 2.96875 -8.175781 3.15625 -7.9375 C 3.34375 -7.707031 3.617188 -7.507812 3.984375 -7.34375 C 4.347656 -7.1875 5.066406 -6.988281 6.140625 -6.75 C 6.492188 -6.664062 6.847656 -6.578125 7.203125 -6.484375 C 7.566406 -6.398438 7.910156 -6.296875 8.234375 -6.171875 C 8.566406 -6.054688 8.875 -5.914062 9.15625 -5.75 C 9.445312 -5.59375 9.695312 -5.398438 9.90625 -5.171875 C 10.113281 -4.941406 10.273438 -4.664062 10.390625 -4.34375 C 10.515625 -4.03125 10.578125 -3.660156 10.578125 -3.234375 Z M 10.578125 -3.234375 "/></g></g></g><g fill="#233dff" fill-opacity="1"><g transform="translate(79.520224, 268.185336)"><g/></g></g><g fill="#233dff" fill-opacity="1"><g transform="translate(86.289065, 268.185336)"><g><path d="M 6.59375 -10.59375 C 5.289062 -10.59375 4.28125 -10.175781 3.5625 -9.34375 C 2.84375 -8.507812 2.484375 -7.363281 2.484375 -5.90625 C 2.484375 -4.476562 2.859375 -3.328125 3.609375 -2.453125 C 4.359375 -1.578125 5.375 -1.140625 6.65625 -1.140625 C 8.289062 -1.140625 9.523438 -1.953125 10.359375 -3.578125 L 11.65625 -2.921875 C 11.164062 -1.910156 10.484375 -1.140625 9.609375 -0.609375 C 8.742188 -0.0859375 7.734375 0.171875 6.578125 0.171875 C 5.398438 0.171875 4.378906 -0.0703125 3.515625 -0.5625 C 2.648438 -1.0625 1.988281 -1.765625 1.53125 -2.671875 C 1.082031 -3.585938 0.859375 -4.664062 0.859375 -5.90625 C 0.859375 -7.78125 1.363281 -9.242188 2.375 -10.296875 C 3.382812 -11.359375 4.78125 -11.890625 6.5625 -11.890625 C 7.8125 -11.890625 8.851562 -11.644531 9.6875 -11.15625 C 10.53125 -10.664062 11.148438 -9.941406 11.546875 -8.984375 L 10.03125 -8.484375 C 9.757812 -9.171875 9.320312 -9.691406 8.71875 -10.046875 C 8.125 -10.410156 7.414062 -10.59375 6.59375 -10.59375 Z M 6.59375 -10.59375 "/></g></g></g><g fill="#233dff" fill-opacity="1"><g transform="translate(100.614211, 268.185336)"><g><path d="M 12.4375 -5.90625 C 12.4375 -4.6875 12.203125 -3.613281 11.734375 -2.6875 C 11.265625 -1.769531 10.59375 -1.0625 9.71875 -0.5625 C 8.84375 -0.0703125 7.804688 0.171875 6.609375 0.171875 C 5.410156 0.171875 4.375 -0.0703125 3.5 -0.5625 C 2.625 -1.050781 1.957031 -1.753906 1.5 -2.671875 C 1.039062 -3.597656 0.8125 -4.675781 0.8125 -5.90625 C 0.8125 -7.78125 1.320312 -9.242188 2.34375 -10.296875 C 3.375 -11.359375 4.800781 -11.890625 6.625 -11.890625 C 7.820312 -11.890625 8.859375 -11.648438 9.734375 -11.171875 C 10.609375 -10.703125 11.273438 -10.015625 11.734375 -9.109375 C 12.203125 -8.210938 12.4375 -7.144531 12.4375 -5.90625 Z M 10.8125 -5.90625 C 10.8125 -7.363281 10.445312 -8.507812 9.71875 -9.34375 C 8.988281 -10.175781 7.957031 -10.59375 6.625 -10.59375 C 5.28125 -10.59375 4.242188 -10.179688 3.515625 -9.359375 C 2.785156 -8.546875 2.421875 -7.394531 2.421875 -5.90625 C 2.421875 -4.4375 2.789062 -3.269531 3.53125 -2.40625 C 4.269531 -1.550781 5.296875 -1.125 6.609375 -1.125 C 7.960938 -1.125 9 -1.539062 9.71875 -2.375 C 10.445312 -3.207031 10.8125 -4.382812 10.8125 -5.90625 Z M 10.8125 -5.90625 "/></g></g></g><g fill="#233dff" fill-opacity="1"><g transform="translate(115.88597, 268.185336)"><g><path d="M 9 0 L 2.734375 -9.984375 L 2.765625 -9.171875 L 2.8125 -7.78125 L 2.8125 0 L 1.390625 0 L 1.390625 -11.71875 L 3.25 -11.71875 L 9.578125 -1.671875 C 9.515625 -2.753906 9.484375 -3.539062 9.484375 -4.03125 L 9.484375 -11.71875 L 10.90625 -11.71875 L 10.90625 0 Z M 9 0 "/></g></g></g><g fill="#233dff" fill-opacity="1"><g transform="translate(130.211116, 268.185336)"><g><path d="M 9 0 L 2.734375 -9.984375 L 2.765625 -9.171875 L 2.8125 -7.78125 L 2.8125 0 L 1.390625 0 L 1.390625 -11.71875 L 3.25 -11.71875 L 9.578125 -1.671875 C 9.515625 -2.753906 9.484375 -3.539062 9.484375 -4.03125 L 9.484375 -11.71875 L 10.90625 -11.71875 L 10.90625 0 Z M 9 0 "/></g></g></g><g fill="#233dff" fill-opacity="1"><g transform="translate(144.536262, 268.185336)"><g><path d="M 1.390625 0 L 1.390625 -11.71875 L 10.28125 -11.71875 L 10.28125 -10.421875 L 2.984375 -10.421875 L 2.984375 -6.65625 L 9.78125 -6.65625 L 9.78125 -5.375 L 2.984375 -5.375 L 2.984375 -1.296875 L 10.625 -1.296875 L 10.625 0 Z M 1.390625 0 "/></g></g></g><g fill="#233dff" fill-opacity="1"><g transform="translate(157.923097, 268.185336)"><g><path d="M 6.59375 -10.59375 C 5.289062 -10.59375 4.28125 -10.175781 3.5625 -9.34375 C 2.84375 -8.507812 2.484375 -7.363281 2.484375 -5.90625 C 2.484375 -4.476562 2.859375 -3.328125 3.609375 -2.453125 C 4.359375 -1.578125 5.375 -1.140625 6.65625 -1.140625 C 8.289062 -1.140625 9.523438 -1.953125 10.359375 -3.578125 L 11.65625 -2.921875 C 11.164062 -1.910156 10.484375 -1.140625 9.609375 -0.609375 C 8.742188 -0.0859375 7.734375 0.171875 6.578125 0.171875 C 5.398438 0.171875 4.378906 -0.0703125 3.515625 -0.5625 C 2.648438 -1.0625 1.988281 -1.765625 1.53125 -2.671875 C 1.082031 -3.585938 0.859375 -4.664062 0.859375 -5.90625 C 0.859375 -7.78125 1.363281 -9.242188 2.375 -10.296875 C 3.382812 -11.359375 4.78125 -11.890625 6.5625 -11.890625 C 7.8125 -11.890625 8.851562 -11.644531 9.6875 -11.15625 C 10.53125 -10.664062 11.148438 -9.941406 11.546875 -8.984375 L 10.03125 -8.484375 C 9.757812 -9.171875 9.320312 -9.691406 8.71875 -10.046875 C 8.125 -10.410156 7.414062 -10.59375 6.59375 -10.59375 Z M 6.59375 -10.59375 "/></g></g></g><g fill="#233dff" fill-opacity="1"><g transform="translate(172.248243, 268.185336)"><g><path d="M 5.984375 -10.421875 L 5.984375 0 L 4.40625 0 L 4.40625 -10.421875 L 0.375 -10.421875 L 0.375 -11.71875 L 10.015625 -11.71875 L 10.015625 -10.421875 Z M 5.984375 -10.421875 "/></g></g></g><g fill="#233dff" fill-opacity="1"><g transform="translate(184.680161, 268.185336)"><g/></g></g><g fill="#233dff" fill-opacity="1"><g transform="translate(191.449001, 268.185336)"><g><path d="M 12.5625 0 L 10.671875 0 L 8.640625 -7.4375 C 8.503906 -7.90625 8.3125 -8.742188 8.0625 -9.953125 C 7.914062 -9.304688 7.789062 -8.765625 7.6875 -8.328125 C 7.59375 -7.898438 6.835938 -5.125 5.421875 0 L 3.53125 0 L 0.078125 -11.71875 L 1.734375 -11.71875 L 3.828125 -4.28125 C 4.078125 -3.34375 4.3125 -2.378906 4.53125 -1.390625 C 4.65625 -2.003906 4.804688 -2.671875 4.984375 -3.390625 C 5.160156 -4.109375 5.929688 -6.882812 7.296875 -11.71875 L 8.8125 -11.71875 L 10.859375 -4.421875 C 11.160156 -3.234375 11.398438 -2.222656 11.578125 -1.390625 L 11.65625 -1.6875 C 11.8125 -2.320312 11.9375 -2.835938 12.03125 -3.234375 C 12.125 -3.640625 12.898438 -6.46875 14.359375 -11.71875 L 16.015625 -11.71875 Z M 12.5625 0 "/></g></g></g><g fill="#233dff" fill-opacity="1"><g transform="translate(209.543996, 268.185336)"><g><path d="M 1.578125 0 L 1.578125 -11.71875 L 3.15625 -11.71875 L 3.15625 0 Z M 1.578125 0 "/></g></g></g><g fill="#233dff" fill-opacity="1"><g transform="translate(216.312837, 268.185336)"><g><path d="M 5.984375 -10.421875 L 5.984375 0 L 4.40625 0 L 4.40625 -10.421875 L 0.375 -10.421875 L 0.375 -11.71875 L 10.015625 -11.71875 L 10.015625 -10.421875 Z M 5.984375 -10.421875 "/></g></g></g><g fill="#233dff" fill-opacity="1"><g transform="translate(228.744755, 268.185336)"><g><path d="M 9.328125 0 L 9.328125 -5.4375 L 2.984375 -5.4375 L 2.984375 0 L 1.390625 0 L 1.390625 -11.71875 L 2.984375 -11.71875 L 2.984375 -6.765625 L 9.328125 -6.765625 L 9.328125 -11.71875 L 10.90625 -11.71875 L 10.90625 0 Z M 9.328125 0 "/></g></g></g><g fill="#233dff" fill-opacity="1"><g transform="translate(243.0699, 268.185336)"><g/></g></g><g fill="#233dff" fill-opacity="1"><g transform="translate(249.838741, 268.185336)"><g><path d="M 11.359375 0 L 11.359375 -7.8125 C 11.359375 -8.675781 11.382812 -9.507812 11.4375 -10.3125 C 11.164062 -9.320312 10.921875 -8.546875 10.703125 -7.984375 L 7.671875 0 L 6.5625 0 L 3.5 -7.984375 L 3.03125 -9.390625 L 2.75 -10.3125 L 2.78125 -9.390625 L 2.8125 -7.8125 L 2.8125 0 L 1.390625 0 L 1.390625 -11.71875 L 3.484375 -11.71875 L 6.609375 -3.59375 C 6.710938 -3.269531 6.816406 -2.921875 6.921875 -2.546875 C 7.023438 -2.171875 7.09375 -1.898438 7.125 -1.734375 C 7.164062 -1.953125 7.257812 -2.285156 7.40625 -2.734375 C 7.550781 -3.191406 7.644531 -3.476562 7.6875 -3.59375 L 10.75 -11.71875 L 12.796875 -11.71875 L 12.796875 0 Z M 11.359375 0 "/></g></g></g><g fill="#233dff" fill-opacity="1"><g transform="translate(266.048811, 268.185336)"><g><path d="M 1.390625 0 L 1.390625 -11.71875 L 10.28125 -11.71875 L 10.28125 -10.421875 L 2.984375 -10.421875 L 2.984375 -6.65625 L 9.78125 -6.65625 L 9.78125 -5.375 L 2.984375 -5.375 L 2.984375 -1.296875 L 10.625 -1.296875 L 10.625 0 Z M 1.390625 0 "/></g></g></g><g fill="#233dff" fill-opacity="1"><g transform="translate(279.435647, 268.185336)"><g><path d="M 11.359375 0 L 11.359375 -7.8125 C 11.359375 -8.675781 11.382812 -9.507812 11.4375 -10.3125 C 11.164062 -9.320312 10.921875 -8.546875 10.703125 -7.984375 L 7.671875 0 L 6.5625 0 L 3.5 -7.984375 L 3.03125 -9.390625 L 2.75 -10.3125 L 2.78125 -9.390625 L 2.8125 -7.8125 L 2.8125 0 L 1.390625 0 L 1.390625 -11.71875 L 3.484375 -11.71875 L 6.609375 -3.59375 C 6.710938 -3.269531 6.816406 -2.921875 6.921875 -2.546875 C 7.023438 -2.171875 7.09375 -1.898438 7.125 -1.734375 C 7.164062 -1.953125 7.257812 -2.285156 7.40625 -2.734375 C 7.550781 -3.191406 7.644531 -3.476562 7.6875 -3.59375 L 10.75 -11.71875 L 12.796875 -11.71875 L 12.796875 0 Z M 11.359375 0 "/></g></g></g><g fill="#233dff" fill-opacity="1"><g transform="translate(295.645717, 268.185336)"><g><path d="M 12.4375 -5.90625 C 12.4375 -4.6875 12.203125 -3.613281 11.734375 -2.6875 C 11.265625 -1.769531 10.59375 -1.0625 9.71875 -0.5625 C 8.84375 -0.0703125 7.804688 0.171875 6.609375 0.171875 C 5.410156 0.171875 4.375 -0.0703125 3.5 -0.5625 C 2.625 -1.050781 1.957031 -1.753906 1.5 -2.671875 C 1.039062 -3.597656 0.8125 -4.675781 0.8125 -5.90625 C 0.8125 -7.78125 1.320312 -9.242188 2.34375 -10.296875 C 3.375 -11.359375 4.800781 -11.890625 6.625 -11.890625 C 7.820312 -11.890625 8.859375 -11.648438 9.734375 -11.171875 C 10.609375 -10.703125 11.273438 -10.015625 11.734375 -9.109375 C 12.203125 -8.210938 12.4375 -7.144531 12.4375 -5.90625 Z M 10.8125 -5.90625 C 10.8125 -7.363281 10.445312 -8.507812 9.71875 -9.34375 C 8.988281 -10.175781 7.957031 -10.59375 6.625 -10.59375 C 5.28125 -10.59375 4.242188 -10.179688 3.515625 -9.359375 C 2.785156 -8.546875 2.421875 -7.394531 2.421875 -5.90625 C 2.421875 -4.4375 2.789062 -3.269531 3.53125 -2.40625 C 4.269531 -1.550781 5.296875 -1.125 6.609375 -1.125 C 7.960938 -1.125 9 -1.539062 9.71875 -2.375 C 10.445312 -3.207031 10.8125 -4.382812 10.8125 -5.90625 Z M 10.8125 -5.90625 "/></g></g></g><g fill="#233dff" fill-opacity="1"><g transform="translate(310.917477, 268.185336)"><g><path d="M 9.6875 0 L 6.640625 -4.859375 L 2.984375 -4.859375 L 2.984375 0 L 1.390625 0 L 1.390625 -11.71875 L 6.90625 -11.71875 C 8.226562 -11.71875 9.25 -11.421875 9.96875 -10.828125 C 10.6875 -10.242188 11.046875 -9.421875 11.046875 -8.359375 C 11.046875 -7.492188 10.789062 -6.765625 10.28125 -6.171875 C 9.769531 -5.578125 9.070312 -5.203125 8.1875 -5.046875 L 11.515625 0 Z M 9.453125 -8.34375 C 9.453125 -9.03125 9.21875 -9.550781 8.75 -9.90625 C 8.289062 -10.257812 7.625 -10.4375 6.75 -10.4375 L 2.984375 -10.4375 L 2.984375 -6.125 L 6.8125 -6.125 C 7.65625 -6.125 8.304688 -6.316406 8.765625 -6.703125 C 9.222656 -7.097656 9.453125 -7.644531 9.453125 -8.34375 Z M 9.453125 -8.34375 "/></g></g></g><g fill="#233dff" fill-opacity="1"><g transform="translate(325.242622, 268.185336)"><g><path d="M 1.578125 0 L 1.578125 -11.71875 L 3.15625 -11.71875 L 3.15625 0 Z M 1.578125 0 "/></g></g></g><g fill="#233dff" fill-opacity="1"><g transform="translate(332.011463, 268.185336)"><g><path d="M 1.390625 0 L 1.390625 -11.71875 L 10.28125 -11.71875 L 10.28125 -10.421875 L 2.984375 -10.421875 L 2.984375 -6.65625 L 9.78125 -6.65625 L 9.78125 -5.375 L 2.984375 -5.375 L 2.984375 -1.296875 L 10.625 -1.296875 L 10.625 0 Z M 1.390625 0 "/></g></g></g><g fill="#233dff" fill-opacity="1"><g transform="translate(345.398298, 268.185336)"><g><path d="M 10.578125 -3.234375 C 10.578125 -2.148438 10.15625 -1.3125 9.3125 -0.71875 C 8.46875 -0.125 7.273438 0.171875 5.734375 0.171875 C 2.878906 0.171875 1.222656 -0.820312 0.765625 -2.8125 L 2.3125 -3.125 C 2.488281 -2.414062 2.863281 -1.894531 3.4375 -1.5625 C 4.019531 -1.238281 4.804688 -1.078125 5.796875 -1.078125 C 6.816406 -1.078125 7.601562 -1.25 8.15625 -1.59375 C 8.71875 -1.945312 9 -2.46875 9 -3.15625 C 9 -3.53125 8.910156 -3.835938 8.734375 -4.078125 C 8.566406 -4.316406 8.320312 -4.515625 8 -4.671875 C 7.6875 -4.828125 7.3125 -4.957031 6.875 -5.0625 C 6.4375 -5.164062 5.953125 -5.28125 5.421875 -5.40625 C 4.492188 -5.613281 3.789062 -5.816406 3.3125 -6.015625 C 2.832031 -6.222656 2.453125 -6.453125 2.171875 -6.703125 C 1.898438 -6.953125 1.691406 -7.242188 1.546875 -7.578125 C 1.398438 -7.921875 1.328125 -8.3125 1.328125 -8.75 C 1.328125 -9.757812 1.707031 -10.535156 2.46875 -11.078125 C 3.238281 -11.617188 4.335938 -11.890625 5.765625 -11.890625 C 7.097656 -11.890625 8.113281 -11.6875 8.8125 -11.28125 C 9.519531 -10.875 10.015625 -10.179688 10.296875 -9.203125 L 8.734375 -8.921875 C 8.566406 -9.546875 8.238281 -9.992188 7.75 -10.265625 C 7.269531 -10.546875 6.601562 -10.6875 5.75 -10.6875 C 4.8125 -10.6875 4.097656 -10.53125 3.609375 -10.21875 C 3.117188 -9.914062 2.875 -9.457031 2.875 -8.84375 C 2.875 -8.476562 2.96875 -8.175781 3.15625 -7.9375 C 3.34375 -7.707031 3.617188 -7.507812 3.984375 -7.34375 C 4.347656 -7.1875 5.066406 -6.988281 6.140625 -6.75 C 6.492188 -6.664062 6.847656 -6.578125 7.203125 -6.484375 C 7.566406 -6.398438 7.910156 -6.296875 8.234375 -6.171875 C 8.566406 -6.054688 8.875 -5.914062 9.15625 -5.75 C 9.445312 -5.59375 9.695312 -5.398438 9.90625 -5.171875 C 10.113281 -4.941406 10.273438 -4.664062 10.390625 -4.34375 C 10.515625 -4.03125 10.578125 -3.660156 10.578125 -3.234375 Z M 10.578125 -3.234375 "/></g></g></g></svg>